<?xml version="1.0" encoding="UTF-8" standalone="no"?>
<svg width="31px" height="32px" viewBox="0 0 31 32" version="1.1" xmlns="http://www.w3.org/2000/svg" xmlns:xlink="http://www.w3.org/1999/xlink" xmlns:sketch="http://www.bohemiancoding.com/sketch/ns">
    <!-- Generator: Sketch 3.3 (11970) - http://www.bohemiancoding.com/sketch -->
    <title>account-icon</title>
    <desc>Created with Sketch.</desc>
    <defs>
        <filter x="-50%" y="-50%" width="200%" height="200%" filterUnits="objectBoundingBox" id="filter-1">
            <feOffset dx="0" dy="1" in="SourceAlpha" result="shadowOffsetOuter1"></feOffset>
            <feGaussianBlur stdDeviation="1.5" in="shadowOffsetOuter1" result="shadowBlurOuter1"></feGaussianBlur>
            <feColorMatrix values="0 0 0 0 0   0 0 0 0 0   0 0 0 0 0  0 0 0 0.35 0" in="shadowBlurOuter1" type="matrix" result="shadowMatrixOuter1"></feColorMatrix>
            <feMerge>
                <feMergeNode in="shadowMatrixOuter1"></feMergeNode>
                <feMergeNode in="SourceGraphic"></feMergeNode>
            </feMerge>
        </filter>
    </defs>
    <g id="Page-1" stroke="none" stroke-width="1" fill="none" fill-rule="evenodd" sketch:type="MSPage">
        <g id="app-list" sketch:type="MSArtboardGroup" transform="translate(-151.000000, -408.000000)" filter="url(#filter-1)" fill="#828281">
            <g id="nav" sketch:type="MSLayerGroup" transform="translate(129.000000, 200.000000)">
                <g id="nav-items" transform="translate(23.000000, 210.000000)" sketch:type="MSShapeGroup">
                    <g id="account-icon-+-Account" transform="translate(1.000000, 0.000000)">
                        <path d="M21.356,21.521 C21.192,21.44 21.033,21.36 20.865,21.29 C20.85,21.3 20.836,21.32 20.818,21.33 C20.543,21.2 20.008,20.96 19.34,20.73 C18.768,20.55 18.182,20.39 17.574,20.26 C17.578,20.26 17.58,20.25 17.582,20.25 C16.984,20.13 16.537,20.06 16.537,20.06 C16.537,20.06 16.287,19.29 16.203,18.42 C16.121,17.54 16.254,17.04 16.254,17.04 C16.254,17.04 16.787,16.75 16.975,16.42 C17.162,16.08 17.287,14.06 17.287,14.06 L17.975,13.73 L18.434,11.76 L18.434,10.96 L17.975,10.44 C17.975,10.44 18.225,9.311 18.225,8.06 C18.225,6.81 17.934,5.69 17.934,5.69 C17.934,5.69 16.828,4.5 15.725,4 C14.621,3.5 13.537,3.5 13.537,3.5 C13.537,3.5 13.471,3.5 13.357,3.51 C13.244,3.5 13.178,3.5 13.178,3.5 C13.178,3.5 12.094,3.5 10.99,4 C9.887,4.5 8.781,5.69 8.781,5.69 C8.781,5.69 8.49,6.81 8.49,8.06 C8.49,9.311 8.74,10.44 8.74,10.44 L8.281,10.96 L8.281,11.76 L8.74,13.73 L9.428,14.06 C9.428,14.06 9.553,16.08 9.74,16.42 C9.928,16.75 10.461,17.04 10.461,17.04 C10.461,17.04 10.594,17.54 10.512,18.42 C10.428,19.29 10.178,20.06 10.178,20.06 C10.178,20.06 9.73,20.13 9.133,20.25 C9.135,20.25 9.137,20.26 9.141,20.26 C8.533,20.39 7.947,20.55 7.375,20.73 C6.707,20.96 6.172,21.2 5.896,21.33 C5.879,21.32 5.865,21.3 5.85,21.29 C5.682,21.36 5.522,21.44 5.358,21.521 C3.086,19.38 1.657,16.36 1.657,13 C1.657,6.55 6.906,1.3 13.357,1.3 C19.809,1.3 25.058,6.55 25.058,13 C25.058,16.36 23.629,19.38 21.356,21.521 L21.356,21.521 Z M13.357,0.5 C6.454,0.5 0.857,6.101 0.857,13 C0.857,19.9 6.454,25.5 13.357,25.5 C20.261,25.5 25.857,19.9 25.857,13 C25.857,6.101 20.261,0.5 13.357,0.5 L13.357,0.5 Z" id="account-icon"></path>
                    </g>
                </g>
            </g>
        </g>
    </g>
</svg>