<?xml version="1.0" encoding="UTF-8" standalone="no"?>
<svg width="33px" height="30px" viewBox="0 0 33 30" version="1.1" xmlns="http://www.w3.org/2000/svg" xmlns:xlink="http://www.w3.org/1999/xlink" xmlns:sketch="http://www.bohemiancoding.com/sketch/ns">
    <!-- Generator: Sketch 3.3 (11970) - http://www.bohemiancoding.com/sketch -->
    <title>list-icon</title>
    <desc>Created with Sketch.</desc>
    <defs>
        <filter x="-50%" y="-50%" width="200%" height="200%" filterUnits="objectBoundingBox" id="filter-1">
            <feOffset dx="0" dy="1" in="SourceAlpha" result="shadowOffsetOuter1"></feOffset>
            <feGaussianBlur stdDeviation="1.5" in="shadowOffsetOuter1" result="shadowBlurOuter1"></feGaussianBlur>
            <feColorMatrix values="0 0 0 0 0   0 0 0 0 0   0 0 0 0 0  0 0 0 0.35 0" in="shadowBlurOuter1" type="matrix" result="shadowMatrixOuter1"></feColorMatrix>
            <feMerge>
                <feMergeNode in="shadowMatrixOuter1"></feMergeNode>
                <feMergeNode in="SourceGraphic"></feMergeNode>
            </feMerge>
        </filter>
    </defs>
    <g id="Page-1" stroke="none" stroke-width="1" fill="none" fill-rule="evenodd" sketch:type="MSPage">
        <g id="app-list" sketch:type="MSArtboardGroup" transform="translate(-150.000000, -465.000000)" filter="url(#filter-1)" fill="#828281">
            <g id="nav" sketch:type="MSLayerGroup" transform="translate(129.000000, 200.000000)">
                <g id="nav-items" transform="translate(23.000000, 210.000000)" sketch:type="MSShapeGroup">
                    <g id="List-+-list-icon" transform="translate(0.000000, 57.000000)">
                        <path d="M8.857,2.5 L27.857,2.5 L27.857,3.5 L8.857,3.5 L8.857,2.5 Z M8.857,11.5 L27.857,11.5 L27.857,12.5 L8.857,12.5 L8.857,11.5 Z M8.857,20.5 L27.857,20.5 L27.857,21.5 L8.857,21.5 L8.857,20.5 Z M3.357,0.5 C1.979,0.5 0.857,1.621 0.857,3 C0.857,4.382 1.979,5.5 3.357,5.5 C4.736,5.5 5.857,4.382 5.857,3 C5.857,1.621 4.736,0.5 3.357,0.5 Z M3.357,1.5 C4.185,1.5 4.857,2.173 4.857,3 C4.857,3.827 4.185,4.5 3.357,4.5 C2.53,4.5 1.857,3.827 1.857,3 C1.857,2.173 2.53,1.5 3.357,1.5 Z M3.357,9.5 C1.979,9.5 0.857,10.621 0.857,12 C0.857,13.382 1.979,14.5 3.357,14.5 C4.736,14.5 5.857,13.382 5.857,12 C5.857,10.621 4.736,9.5 3.357,9.5 Z M3.357,10.5 C4.185,10.5 4.857,11.173 4.857,12 C4.857,12.827 4.185,13.5 3.357,13.5 C2.53,13.5 1.857,12.827 1.857,12 C1.857,11.173 2.53,10.5 3.357,10.5 Z M3.357,18.5 C1.979,18.5 0.857,19.621 0.857,21 C0.857,22.382 1.979,23.5 3.357,23.5 C4.736,23.5 5.857,22.382 5.857,21 C5.857,19.621 4.736,18.5 3.357,18.5 Z M3.357,19.5 C4.185,19.5 4.857,20.173 4.857,21 C4.857,21.827 4.185,22.5 3.357,22.5 C2.53,22.5 1.857,21.827 1.857,21 C1.857,20.173 2.53,19.5 3.357,19.5 L3.357,19.5 Z" id="list-icon"></path>
                    </g>
                </g>
            </g>
        </g>
    </g>
</svg>