<?xml version="1.0" encoding="UTF-8" standalone="no"?>
<svg width="66px" height="19px" viewBox="0 0 66 19" version="1.1" xmlns="http://www.w3.org/2000/svg" xmlns:xlink="http://www.w3.org/1999/xlink" xmlns:sketch="http://www.bohemiancoding.com/sketch/ns">
    <!-- Generator: Sketch 3.3 (11970) - http://www.bohemiancoding.com/sketch -->
    <title>Express</title>
    <desc>Created with Sketch.</desc>
    <defs></defs>
    <g id="Page-1" stroke="none" stroke-width="1" fill="none" fill-rule="evenodd" sketch:type="MSPage">
        <g id="main" sketch:type="MSArtboardGroup" transform="translate(-286.000000, -1756.000000)" fill="#1A1A1A">
            <g id="tools" sketch:type="MSLayerGroup" transform="translate(128.500000, 1029.000000)">
                <g id="tool-icons" transform="translate(92.500000, 320.000000)" sketch:type="MSShapeGroup">
                    <g id="node" transform="translate(0.000000, 350.000000)">
                        <g id="node-logo" transform="translate(60.000000, 37.000000)">
                            <path d="M5.93578125,20.8957812 L15.5357812,20.8957812 L15.5357812,21.6557813 L6.81578125,21.6557813 L6.81578125,27.3757812 L15.0157812,27.3757812 L15.0157812,28.1357813 L6.81578125,28.1357813 L6.81578125,34.4157813 L15.6357812,34.4157813 L15.6357812,35.1757812 L5.93578125,35.1757812 L5.93578125,20.8957812 Z M19.7957812,29.7757813 L16.0357812,24.8957812 L17.0957812,24.8957812 L20.3157812,29.1957812 L23.5557812,24.8957812 L24.5357812,24.8957812 L20.8157812,29.7757813 L24.8757812,35.1757812 L23.8357812,35.1757812 L20.3157812,30.3557812 L16.7157812,35.1757812 L15.7557812,35.1757812 L19.7957812,29.7757813 Z M26.8157812,27.2557812 L26.8557812,27.2557812 C26.9357816,27.0024466 27.0691136,26.7224494 27.2557812,26.4157813 C27.4424488,26.109113 27.689113,25.8257825 27.9957812,25.5657813 C28.3024494,25.30578 28.6724457,25.0891155 29.1057812,24.9157813 C29.5391167,24.742447 30.0357784,24.6557813 30.5957812,24.6557813 C31.3824518,24.6557813 32.0657783,24.8024464 32.6457812,25.0957813 C33.2257841,25.389116 33.7057793,25.7824455 34.0857812,26.2757813 C34.4657831,26.769117 34.7491136,27.3424446 34.9357812,27.9957813 C35.1224488,28.6491178 35.2157812,29.3357777 35.2157812,30.0557812 C35.2157812,30.8424518 35.1224488,31.5624446 34.9357812,32.2157812 C34.7491136,32.8691178 34.4657831,33.4324455 34.0857812,33.9057813 C33.7057793,34.3791169 33.2257841,34.7491133 32.6457812,35.0157813 C32.0657783,35.2824492 31.3824518,35.4157813 30.5957812,35.4157813 C29.7424436,35.4157813 28.9824512,35.2291164 28.3157812,34.8557812 C27.6491112,34.4824461 27.1624494,33.8757855 26.8557812,33.0357812 L26.8157812,33.0357812 L26.8157812,38.8557812 L26.0557812,38.8557812 L26.0557812,24.8957812 L26.8157812,24.8957812 L26.8157812,27.2557812 Z M30.5957812,34.7557812 C31.2624512,34.7557812 31.8391121,34.6291158 32.3257812,34.3757813 C32.8124503,34.1224467 33.2124463,33.7824501 33.5257812,33.3557812 C33.8391161,32.9291124 34.0724471,32.4324508 34.2257812,31.8657812 C34.3791153,31.2991118 34.4557812,30.6957844 34.4557812,30.0557812 C34.4557812,29.4691117 34.3824486,28.8924508 34.2357812,28.3257812 C34.0891138,27.7591117 33.8624494,27.2524502 33.5557812,26.8057812 C33.249113,26.3591123 32.8524503,25.9991159 32.3657812,25.7257812 C31.8791121,25.4524465 31.289118,25.3157813 30.5957812,25.3157813 C29.9157778,25.3157813 29.3357836,25.4491132 28.8557812,25.7157812 C28.3757788,25.9824493 27.9857827,26.335779 27.6857812,26.7757813 C27.3857797,27.2157834 27.1691152,27.7191117 27.0357812,28.2857812 C26.9024472,28.8524507 26.8357812,29.4424449 26.8357812,30.0557812 C26.8357812,30.6691177 26.8957806,31.2591118 27.0157812,31.8257812 C27.1357818,32.3924508 27.3391131,32.8924458 27.6257812,33.3257812 C27.9124493,33.7591168 28.2991121,34.1057799 28.7857812,34.3657812 C29.2724503,34.6257825 29.8757776,34.7557812 30.5957812,34.7557812 L30.5957812,34.7557812 Z M37.7557812,27.1757812 L37.8157812,27.1757812 C37.909115,26.8424463 38.0791133,26.529116 38.3257812,26.2357813 C38.5724491,25.9424464 38.8724461,25.6891156 39.2257812,25.4757812 C39.5791163,25.2624468 39.9724457,25.0991152 40.4057812,24.9857813 C40.8391167,24.8724474 41.2891122,24.8224478 41.7557812,24.8357813 L41.7557812,25.5957813 C41.3557792,25.5424476 40.8991171,25.5824473 40.3857812,25.7157812 C39.8724453,25.8491153 39.3824502,26.1424456 38.9157812,26.5957813 C38.7291136,26.7957823 38.5657819,26.9891137 38.4257812,27.1757812 C38.2857805,27.3624488 38.169115,27.5691135 38.0757812,27.7957813 C37.9824474,28.022449 37.9091148,28.2757798 37.8557812,28.5557812 C37.8024476,28.8357826 37.7691146,29.1691127 37.7557812,29.5557812 L37.7557812,35.1757812 L36.9957812,35.1757812 L36.9957812,24.8957812 L37.7557812,24.8957812 L37.7557812,27.1757812 Z M42.6157812,30.1357813 L42.6157812,30.2557812 C42.6157812,30.8557842 42.6957804,31.4291119 42.8557812,31.9757813 C43.015782,32.5224506 43.2524463,33.0024459 43.5657812,33.4157813 C43.8791161,33.8291167 44.2724455,34.1557801 44.7457812,34.3957812 C45.2191169,34.6357825 45.7691114,34.7557812 46.3957812,34.7557812 C47.422453,34.7557812 48.2357782,34.4857839 48.8357812,33.9457812 C49.4357842,33.4057786 49.8491134,32.6557861 50.0757812,31.6957812 L50.8357812,31.6957812 C50.6091134,32.8957872 50.1191183,33.815778 49.3657812,34.4557813 C48.6124441,35.0957844 47.6157874,35.4157813 46.3757812,35.4157813 C45.6157774,35.4157813 44.9524507,35.279116 44.3857812,35.0057812 C43.8191117,34.7324465 43.3457831,34.359117 42.9657812,33.8857813 C42.5857793,33.4124456 42.3024488,32.8524512 42.1157812,32.2057813 C41.9291136,31.5591114 41.8357812,30.8624517 41.8357812,30.1157812 C41.8357812,29.3957776 41.9324469,28.7057846 42.1257812,28.0457813 C42.3191155,27.3857779 42.6091126,26.8057837 42.9957812,26.3057812 C43.3824498,25.8057787 43.8657783,25.4057828 44.4457812,25.1057812 C45.0257841,24.8057797 45.7091106,24.6557813 46.4957812,24.6557813 C47.2157848,24.6557813 47.8524451,24.7891132 48.4057812,25.0557812 C48.9591173,25.3224492 49.422446,25.6857789 49.7957812,26.1457812 C50.1691164,26.6057835 50.4524469,27.1391115 50.6457812,27.7457813 C50.8391155,28.3524509 50.9357812,29.0024444 50.9357812,29.6957812 C50.9357812,29.7624482 50.9324479,29.8391142 50.9257812,29.9257812 C50.9191145,30.0124483 50.9157812,30.0824476 50.9157812,30.1357813 L42.6157812,30.1357813 Z M50.1557812,29.4757813 C50.1291144,28.9157785 50.035782,28.3857838 49.8757812,27.8857813 C49.7157804,27.3857788 49.4791161,26.9457831 49.1657812,26.5657813 C48.8524463,26.1857794 48.4724501,25.8824491 48.0257812,25.6557813 C47.5791123,25.4291134 47.0691174,25.3157813 46.4957812,25.3157813 C45.8824448,25.3157813 45.3424502,25.4324468 44.8757812,25.6657813 C44.4091122,25.8991157 44.0157828,26.2057794 43.6957812,26.5857813 C43.3757796,26.9657832 43.1291154,27.4091121 42.9557812,27.9157813 C42.782447,28.4224504 42.6757814,28.9424452 42.6357812,29.4757813 L50.1557812,29.4757813 Z M53.0557812,31.7557812 C53.082448,32.2357837 53.1891136,32.6591127 53.3757812,33.0257813 C53.5624488,33.3924497 53.8057797,33.70578 54.1057812,33.9657812 C54.4057827,34.2257825 54.7557792,34.4224472 55.1557812,34.5557812 C55.5557832,34.6891153 55.9891122,34.7557812 56.4557812,34.7557812 C56.7891162,34.7557812 57.1457793,34.7257816 57.5257812,34.6657813 C57.9057831,34.6057809 58.2591129,34.4957821 58.5857812,34.3357812 C58.9124495,34.1757804 59.1824468,33.9524494 59.3957812,33.6657813 C59.6091156,33.3791132 59.7157812,33.0157835 59.7157812,32.5757812 C59.7157812,32.002445 59.5424496,31.569116 59.1957812,31.2757813 C58.8491128,30.9824464 58.4124505,30.7557821 57.8857812,30.5957813 C57.3591119,30.4357804 56.7924509,30.3057818 56.1857812,30.2057813 C55.5791115,30.1057808 55.0124505,29.9557822 54.4857812,29.7557812 C53.9591119,29.5557803 53.5224496,29.2724497 53.1757812,28.9057813 C52.8291128,28.5391128 52.6557812,28.0024514 52.6557812,27.2957813 C52.6557812,26.789112 52.7691134,26.3657829 52.9957812,26.0257813 C53.222449,25.6857795 53.5124461,25.4157822 53.8657812,25.2157812 C54.2191163,25.0157802 54.615779,24.8724483 55.0557812,24.7857812 C55.4957834,24.6991141 55.935779,24.6557813 56.3757812,24.6557813 C56.9091172,24.6557813 57.4091122,24.7157806 57.8757812,24.8357813 C58.3424502,24.9557819 58.7457795,25.1491132 59.0857812,25.4157813 C59.4257829,25.6824492 59.6924469,26.0224459 59.8857812,26.4357812 C60.0791155,26.8491166 60.1757812,27.3491116 60.1757812,27.9357812 L59.4157812,27.9357812 C59.4157812,27.4691122 59.3391153,27.0691163 59.1857812,26.7357813 C59.0324471,26.4024463 58.8191159,26.132449 58.5457812,25.9257812 C58.2724465,25.7191135 57.9491164,25.5657817 57.5757812,25.4657812 C57.202446,25.3657807 56.80245,25.3157813 56.3757812,25.3157813 C56.0291128,25.3157813 55.6791163,25.3491142 55.3257812,25.4157813 C54.9724461,25.4824482 54.6557826,25.5957804 54.3757812,25.7557812 C54.0957798,25.9157821 53.8657821,26.1224467 53.6857812,26.3757812 C53.5057803,26.6291158 53.4157812,26.9357794 53.4157812,27.2957813 C53.4157812,27.7091166 53.5157802,28.0424467 53.7157812,28.2957813 C53.9157822,28.5491158 54.1791129,28.7524472 54.5057812,28.9057813 C54.8324495,29.0591153 55.1991125,29.1824474 55.6057812,29.2757813 C56.0124499,29.369115 56.4224458,29.4624474 56.8357812,29.5557812 C57.3424504,29.649115 57.8191123,29.7591139 58.2657812,29.8857813 C58.7124501,30.0124485 59.0991129,30.1857801 59.4257812,30.4057813 C59.7524495,30.6257824 60.0091136,30.9091128 60.1957812,31.2557812 C60.3824488,31.6024497 60.4757812,32.0424453 60.4757812,32.5757812 C60.4757812,33.135784 60.3491158,33.5957795 60.0957812,33.9557813 C59.8424466,34.3157831 59.5224498,34.6057802 59.1357812,34.8257812 C58.7491126,35.0457823 58.3191169,35.1991141 57.8457812,35.2857812 C57.3724455,35.3724483 56.9091168,35.4157813 56.4557812,35.4157813 C55.8691116,35.4157813 55.3257837,35.3391154 54.8257812,35.1857812 C54.3257787,35.0324471 53.8891164,34.7991162 53.5157812,34.4857813 C53.142446,34.1724464 52.8491156,33.7891168 52.6357812,33.3357812 C52.4224468,32.8824457 52.3091146,32.3557842 52.2957812,31.7557812 L53.0557812,31.7557812 Z M62.6757812,31.7557812 C62.702448,32.2357837 62.8091136,32.6591127 62.9957812,33.0257813 C63.1824488,33.3924497 63.4257797,33.70578 63.7257812,33.9657812 C64.0257827,34.2257825 64.3757792,34.4224472 64.7757812,34.5557812 C65.1757832,34.6891153 65.6091122,34.7557812 66.0757812,34.7557812 C66.4091162,34.7557812 66.7657793,34.7257816 67.1457812,34.6657813 C67.5257831,34.6057809 67.8791129,34.4957821 68.2057812,34.3357812 C68.5324495,34.1757804 68.8024468,33.9524494 69.0157812,33.6657813 C69.2291156,33.3791132 69.3357812,33.0157835 69.3357812,32.5757812 C69.3357812,32.002445 69.1624496,31.569116 68.8157812,31.2757813 C68.4691128,30.9824464 68.0324505,30.7557821 67.5057812,30.5957813 C66.9791119,30.4357804 66.4124509,30.3057818 65.8057812,30.2057813 C65.1991115,30.1057808 64.6324505,29.9557822 64.1057812,29.7557812 C63.5791119,29.5557803 63.1424496,29.2724497 62.7957812,28.9057813 C62.4491128,28.5391128 62.2757812,28.0024514 62.2757812,27.2957813 C62.2757812,26.789112 62.3891134,26.3657829 62.6157812,26.0257813 C62.842449,25.6857795 63.1324461,25.4157822 63.4857812,25.2157812 C63.8391163,25.0157802 64.235779,24.8724483 64.6757812,24.7857812 C65.1157834,24.6991141 65.555779,24.6557813 65.9957812,24.6557813 C66.5291172,24.6557813 67.0291122,24.7157806 67.4957812,24.8357813 C67.9624502,24.9557819 68.3657795,25.1491132 68.7057812,25.4157813 C69.0457829,25.6824492 69.3124469,26.0224459 69.5057812,26.4357812 C69.6991155,26.8491166 69.7957812,27.3491116 69.7957812,27.9357812 L69.0357812,27.9357812 C69.0357812,27.4691122 68.9591153,27.0691163 68.8057812,26.7357813 C68.6524471,26.4024463 68.4391159,26.132449 68.1657812,25.9257812 C67.8924465,25.7191135 67.5691164,25.5657817 67.1957812,25.4657812 C66.822446,25.3657807 66.42245,25.3157813 65.9957812,25.3157813 C65.6491128,25.3157813 65.2991163,25.3491142 64.9457812,25.4157813 C64.5924461,25.4824482 64.2757826,25.5957804 63.9957812,25.7557812 C63.7157798,25.9157821 63.4857821,26.1224467 63.3057812,26.3757812 C63.1257803,26.6291158 63.0357812,26.9357794 63.0357812,27.2957813 C63.0357812,27.7091166 63.1357802,28.0424467 63.3357812,28.2957813 C63.5357822,28.5491158 63.7991129,28.7524472 64.1257812,28.9057813 C64.4524495,29.0591153 64.8191125,29.1824474 65.2257812,29.2757813 C65.6324499,29.369115 66.0424458,29.4624474 66.4557812,29.5557812 C66.9624504,29.649115 67.4391123,29.7591139 67.8857812,29.8857813 C68.3324501,30.0124485 68.7191129,30.1857801 69.0457812,30.4057813 C69.3724495,30.6257824 69.6291136,30.9091128 69.8157812,31.2557812 C70.0024488,31.6024497 70.0957812,32.0424453 70.0957812,32.5757812 C70.0957812,33.135784 69.9691158,33.5957795 69.7157812,33.9557813 C69.4624466,34.3157831 69.1424498,34.6057802 68.7557812,34.8257812 C68.3691126,35.0457823 67.9391169,35.1991141 67.4657812,35.2857812 C66.9924455,35.3724483 66.5291168,35.4157813 66.0757812,35.4157813 C65.4891116,35.4157813 64.9457837,35.3391154 64.4457812,35.1857812 C63.9457787,35.0324471 63.5091164,34.7991162 63.1357812,34.4857813 C62.762446,34.1724464 62.4691156,33.7891168 62.2557812,33.3357812 C62.0424468,32.8824457 61.9291146,32.3557842 61.9157812,31.7557812 L62.6757812,31.7557812 Z" id="Express"></path>
                        </g>
                    </g>
                </g>
            </g>
        </g>
    </g>
</svg>